<?xml version="1.0" encoding="UTF-8" standalone="no"?>
<!-- Created with Inkscape (http://www.inkscape.org/) -->

<svg
   xmlns:osb="http://www.openswatchbook.org/uri/2009/osb"
   xmlns:dc="http://purl.org/dc/elements/1.1/"
   xmlns:cc="http://creativecommons.org/ns#"
   xmlns:rdf="http://www.w3.org/1999/02/22-rdf-syntax-ns#"
   xmlns:svg="http://www.w3.org/2000/svg"
   xmlns="http://www.w3.org/2000/svg"
   xmlns:sodipodi="http://sodipodi.sourceforge.net/DTD/sodipodi-0.dtd"
   xmlns:inkscape="http://www.inkscape.org/namespaces/inkscape"
   id="svg8699"
   version="1.1"
   inkscape:version="0.91 r13725"
   width="152"
   height="44"
   viewBox="0 0 152 44"
   sodipodi:docname="LogoPincho.svg">
  <metadata
     id="metadata8705">
    <rdf:RDF>
      <cc:Work
         rdf:about="">
        <dc:format>image/svg+xml</dc:format>
        <dc:type
           rdf:resource="http://purl.org/dc/dcmitype/StillImage" />
        <dc:title />
      </cc:Work>
    </rdf:RDF>
  </metadata>
  <defs
     id="defs8703">
    <linearGradient
       id="linearGradient5626"
       osb:paint="solid">
      <stop
         style="stop-color:#00528a;stop-opacity:1;"
         offset="0"
         id="stop5628" />
    </linearGradient>
  </defs>
  <sodipodi:namedview
     pagecolor="#ffffff"
     bordercolor="#666666"
     borderopacity="1"
     objecttolerance="10"
     gridtolerance="10"
     guidetolerance="10"
     inkscape:pageopacity="0"
     inkscape:pageshadow="2"
     inkscape:window-width="1536"
     inkscape:window-height="811"
     id="namedview8701"
     showgrid="false"
     inkscape:zoom="3.2328766"
     inkscape:cx="82.60802"
     inkscape:cy="58.11337"
     inkscape:window-x="-8"
     inkscape:window-y="-8"
     inkscape:window-maximized="1"
     inkscape:current-layer="svg8699"
     inkscape:snap-text-baseline="false"
     showguides="false" />
  <path
     style="fill:#ffffff;fill-opacity:1;fill-rule:evenodd;stroke:#ffffff;stroke-width:0.36965686;stroke-opacity:1"
     d="m 80.940517,22.398598 c 0,-0.08904 0.11881,-0.24139 0.26403,-0.33855 0.21829,-0.14605 0.17816,-0.177567 -0.23162,-0.181924 -0.46871,-0.005 -0.48544,-0.02647 -0.30782,-0.395223 0.10331,-0.214474 0.1727,-0.477037 0.1542,-0.583473 -0.0185,-0.106436 0.0691,-0.291464 0.19466,-0.411173 0.29433,-0.280602 0.29567,-0.588615 0.002,-0.459162 -0.25496,0.112384 -0.28665,-0.03147 -0.0868,-0.394078 0.0875,-0.158805 0.0602,-0.330512 -0.0778,-0.488988 -0.11694,-0.134332 -0.20726,-0.375153 -0.20071,-0.535157 0.007,-0.180286 0.0409,-0.208532 0.088,-0.07428 0.0419,0.119152 0.17629,0.21664 0.29874,0.21664 0.12246,0 0.18069,0.07799 0.1294,0.173313 -0.0513,0.09532 0.0166,0.173312 0.15088,0.173312 0.13426,0 0.20216,0.07799 0.15087,0.173312 -0.0513,0.09532 -0.0293,0.173312 0.0489,0.173312 0.0782,0 0.17929,0.162974 0.22463,0.362164 0.0624,0.274271 0.15829,0.334514 0.39494,0.248235 0.28109,-0.102483 0.29807,-0.07038 0.16902,0.319536 -0.10192,0.307912 -0.091,0.457947 0.0376,0.517987 0.0996,0.04649 -0.066,0.09068 -0.36804,0.09821 -0.32032,0.008 -0.69745,0.160446 -0.90525,0.365971 l -0.35619,0.352287 0.58926,-0.04899 c 0.76126,-0.06329 0.84432,0.237305 0.16794,0.607814 -0.29199,0.159942 -0.53088,0.21795 -0.53088,0.128908 z"
     id="path8763"
     inkscape:connector-curvature="0" />
  <text
     xml:space="preserve"
     style="font-style:italic;font-variant:normal;font-weight:normal;font-stretch:normal;font-size:29.14487076px;line-height:125%;font-family:'Goudy Old Style';-inkscape-font-specification:'Goudy Old Style, Italic';text-align:start;letter-spacing:0px;word-spacing:0px;writing-mode:lr-tb;text-anchor:start;fill:#3a528a;fill-opacity:1;fill-rule:evenodd;stroke:none;stroke-width:1px;stroke-linecap:butt;stroke-linejoin:miter;stroke-opacity:1"
     x="-4.3681192"
     y="-21.063383"
     id="text3362"
     sodipodi:linespacing="125%"
     transform="scale(0.8750641,1.1427734)"
     inkscape:transform-center-x="14.844508"
     inkscape:transform-center-y="6.2868812"><tspan
       style="fill:#3a528a;fill-opacity:1;fill-rule:evenodd"
       sodipodi:role="line"
       id="tspan3364"
       x="-4.3681192"
       y="-21.063383" /></text>
  <text
     xml:space="preserve"
     style="font-style:normal;font-weight:normal;font-size:40px;line-height:125%;font-family:sans-serif;letter-spacing:0px;word-spacing:0px;fill:#ffffff;fill-opacity:1;stroke:none;stroke-width:1px;stroke-linecap:butt;stroke-linejoin:miter;stroke-opacity:1;"
     x="7.1621442"
     y="44.29644"
     id="text3359"
     sodipodi:linespacing="125%"><tspan
       sodipodi:role="line"
       id="tspan3361"
       x="7.1621442"
       y="44.29644"
       style="font-style:normal;font-variant:normal;font-weight:normal;font-stretch:normal;font-family:Batang;-inkscape-font-specification:Batang;fill:#ffffff;">AVP</tspan></text>
  <flowRoot
     xml:space="preserve"
     id="flowRoot3363"
     style="fill:black;stroke:none;stroke-opacity:1;stroke-width:1px;stroke-linejoin:miter;stroke-linecap:butt;fill-opacity:1;font-family:sans-serif;font-style:normal;font-weight:normal;font-size:40px;line-height:125%;letter-spacing:0px;word-spacing:0px"><flowRegion
       id="flowRegion3365"><rect
         id="rect3367"
         width="137.35849"
         height="75.678406"
         x="-14.873213"
         y="-32.990746" /></flowRegion><flowPara
       id="flowPara3369" /></flowRoot>  <flowRoot
     xml:space="preserve"
     id="flowRoot3378"
     style="fill:black;stroke:none;stroke-opacity:1;stroke-width:1px;stroke-linejoin:miter;stroke-linecap:butt;fill-opacity:1;font-family:sans-serif;font-style:normal;font-weight:normal;font-size:40px;line-height:125%;letter-spacing:0px;word-spacing:0px"><flowRegion
       id="flowRegion3380"><rect
         id="rect3382"
         width="362.64392"
         height="451.0083"
         x="-101.05035"
         y="-90.296356" /></flowRegion><flowPara
       id="flowPara3384" /></flowRoot>  <flowRoot
     xml:space="preserve"
     id="flowRoot3386"
     style="fill:black;stroke:none;stroke-opacity:1;stroke-width:1px;stroke-linejoin:miter;stroke-linecap:butt;fill-opacity:1;font-family:sans-serif;font-style:normal;font-weight:normal;font-size:40px;line-height:125%;letter-spacing:0px;word-spacing:0px"><flowRegion
       id="flowRegion3388"><rect
         id="rect3390"
         width="65.179665"
         height="64.304771"
         x="144.7951"
         y="-46.11417" /></flowRegion><flowPara
       id="flowPara3392" /></flowRoot>  <flowRoot
     xml:space="preserve"
     id="flowRoot3402"
     style="fill:black;stroke:none;stroke-opacity:1;stroke-width:1px;stroke-linejoin:miter;stroke-linecap:butt;fill-opacity:1;font-family:sans-serif;font-style:normal;font-weight:normal;font-size:40px;line-height:125%;letter-spacing:0px;word-spacing:0px"><flowRegion
       id="flowRegion3404"><rect
         id="rect3406"
         width="181.54068"
         height="59.930298"
         x="-40.68261"
         y="-23.366903" /></flowRegion><flowPara
       id="flowPara3408" /></flowRoot>  <flowRoot
     xml:space="preserve"
     id="flowRoot3364"
     style="fill:black;stroke:none;stroke-opacity:1;stroke-width:1px;stroke-linejoin:miter;stroke-linecap:butt;fill-opacity:1;font-family:sans-serif;font-style:normal;font-weight:normal;font-size:40px;line-height:125%;letter-spacing:0px;word-spacing:0px"><flowRegion
       id="flowRegion3366"><rect
         id="rect3368"
         width="155.73128"
         height="69.116692"
         x="-12.248528"
         y="-13.086889" /></flowRegion><flowPara
       id="flowPara3370" /></flowRoot>  <flowRoot
     xml:space="preserve"
     id="flowRoot3372"
     style="fill:black;stroke:none;stroke-opacity:1;stroke-width:1px;stroke-linejoin:miter;stroke-linecap:butt;fill-opacity:1;font-family:sans-serif;font-style:normal;font-weight:normal;font-size:40px;line-height:125%;letter-spacing:0px;word-spacing:0px"><flowRegion
       id="flowRegion3374"><rect
         id="rect3376"
         width="127.2972"
         height="45.713257"
         x="-2.8434083"
         y="0.036533836" /></flowRegion><flowPara
       id="flowPara3378" /></flowRoot>  <flowRoot
     xml:space="preserve"
     id="flowRoot3380"
     style="fill:black;stroke:none;stroke-opacity:1;stroke-width:1px;stroke-linejoin:miter;stroke-linecap:butt;fill-opacity:1;font-family:sans-serif;font-style:normal;font-weight:normal;font-size:40px;line-height:125%;letter-spacing:0px;word-spacing:0px"><flowRegion
       id="flowRegion3382"><rect
         id="rect3384"
         width="138.23338"
         height="74.147339"
         x="4.5931978"
         y="-15.274126" /></flowRegion><flowPara
       id="flowPara3386" /></flowRoot>  <flowRoot
     xml:space="preserve"
     id="flowRoot3388"
     style="fill:black;stroke:none;stroke-opacity:1;stroke-width:1px;stroke-linejoin:miter;stroke-linecap:butt;fill-opacity:1;font-family:sans-serif;font-style:normal;font-weight:normal;font-size:40px;line-height:125%;letter-spacing:0px;word-spacing:0px"><flowRegion
       id="flowRegion3390"><rect
         id="rect3392"
         width="134.29636"
         height="47.244324"
         x="-12.685975"
         y="1.7863235" /></flowRegion><flowPara
       id="flowPara3394" /></flowRoot>  <flowRoot
     xml:space="preserve"
     id="flowRoot3396"
     style="fill:black;stroke:none;stroke-opacity:1;stroke-width:1px;stroke-linejoin:miter;stroke-linecap:butt;fill-opacity:1;font-family:sans-serif;font-style:normal;font-weight:normal;font-size:40px;line-height:125%;letter-spacing:0px;word-spacing:0px"><flowRegion
       id="flowRegion3398"><rect
         id="rect3400"
         width="88.36438"
         height="59.492851"
         x="52.056244"
         y="-18.117535" /></flowRegion><flowPara
       id="flowPara3402" /></flowRoot>  <flowRoot
     xml:space="preserve"
     id="flowRoot3404"
     style="fill:black;stroke:none;stroke-opacity:1;stroke-width:1px;stroke-linejoin:miter;stroke-linecap:butt;fill-opacity:1;font-family:sans-serif;font-style:normal;font-weight:normal;font-size:40px;line-height:125%;letter-spacing:0px;word-spacing:0px"><flowRegion
       id="flowRegion3406"><rect
         id="rect3408"
         width="92.957581"
         height="41.338783"
         x="13.998318"
         y="1.7863235" /></flowRegion><flowPara
       id="flowPara3410" /></flowRoot>  <flowRoot
     xml:space="preserve"
     id="flowRoot3412"
     style="fill:black;stroke:none;stroke-opacity:1;stroke-width:1px;stroke-linejoin:miter;stroke-linecap:butt;fill-opacity:1;font-family:sans-serif;font-style:normal;font-weight:normal;font-size:40px;line-height:125%;letter-spacing:0px;word-spacing:0px"><flowRegion
       id="flowRegion3414"><rect
         id="rect3416"
         width="138.23338"
         height="72.397552"
         x="-8.0927773"
         y="-18.117535" /></flowRegion><flowPara
       id="flowPara3418" /></flowRoot>  <g
     id="g3456"
     transform="matrix(0.10180531,0,0,0.09336613,86.309634,9.1098246)"
     style="fill:#ffffff">
    <g
       id="g3458"
       style="fill:#ffffff">
      <path
         d="m 331.079,366.128 c 0,0 0,-108.147 -0.035,-118.906 0.035,-9.818 -0.278,-245.508 -0.278,-245.508 l -5.368,-0.023 c 0,0 -43.884,24.76 -43.872,208.364 33.706,9.26 19.52,46.092 16.964,50.762 0,9.354 0.72,105.358 0.72,105.358 l 0.104,-0.023 c -0.035,0.104 -0.069,0.187 -0.058,0.313 -0.047,8.818 7.11,15.977 15.894,15.906 8.761,0.023 15.941,-7.146 15.906,-15.906 0.035,-0.081 0.035,-0.209 -0.023,-0.268 l 0.046,-0.069 z"
         id="path3460"
         inkscape:connector-curvature="0"
         style="fill:#ffffff" />
      <path
         d="m 253.269,8.481 -9.539,-0.011 2.824,99.892 -11.457,-0.023 0,-99.881 -8.365,0.023 0,100.502 -9.504,0 0,-100.513 -9.225,0.011 -0.023,100.502 -11.235,0 3.212,-100.537 -8.696,0 -10.579,85.031 c 0,0 -0.261,3.201 -0.261,4.415 0,13.112 6.082,24.841 15.586,32.469 31.33,35.361 9.946,71.432 9.946,80.006 0.023,9.481 0.023,155.493 0.023,155.493 l 0.022,0 c 0,0.115 -0.034,0.197 -0.046,0.336 0.012,8.947 7.268,16.174 16.202,16.197 8.946,0 16.22,-7.273 16.22,-16.186 -0.012,-0.15 -0.059,-0.243 -0.059,-0.312 l 0.023,0 c 0,0 0.023,-144.211 0.023,-155.227 -0.023,-9.934 -18.091,-51.436 12.118,-82.26 0.023,-0.046 0.093,-0.128 0.14,-0.192 7.366,-6.982 12.223,-16.609 12.966,-27.42 0.047,-0.761 0.023,-2.678 0.023,-2.678 L 253.269,8.481 Z"
         id="path3462"
         inkscape:connector-curvature="0"
         style="fill:#ffffff" />
      <path
         d="m 108.75,0.023 0,-0.023 c -0.168,0 -0.75,0 -0.918,0 0,0 0,0.012 0,0.023 -35.082,0.57 -54.846,34.159 -54.846,70.671 -0.012,36.814 22.127,63.083 41.426,68.922 10.579,14.814 3.608,49.838 -3.863,70.032 0,9.666 0,157.677 0,157.677 l 0.035,0 c -0.012,0.104 -0.035,0.221 -0.035,0.337 0,9.051 7.337,16.405 16.406,16.405 0.465,0 2.213,0 2.678,0 9.062,0 16.406,-7.354 16.406,-16.405 0,-0.116 -0.012,-0.232 -0.035,-0.337 l 0.035,0 c 0,0 0,-148.011 0,-157.677 -7.471,-20.194 -14.436,-55.218 -3.869,-70.032 19.31,-5.838 41.426,-32.108 41.438,-68.922 C 163.607,34.182 143.838,0.593 108.75,0.023 Z M 90.439,125.354 c -2.19,-1.69 -4.985,-4.392 -7.913,-7.947 -2.974,-3.549 -6.053,-7.947 -8.958,-13.007 -1.406,-2.545 -2.736,-5.258 -3.974,-8.127 -1.179,-2.998 -2.155,-5.885 -2.817,-9.301 -1.214,-6.57 -1.011,-12.85 -0.325,-18.63 0.645,-5.775 1.871,-11.044 3.236,-15.43 1.336,-4.415 2.87,-7.965 4.142,-10.387 1.237,-2.463 2.248,-3.631 2.248,-3.631 0,0 -0.215,1.568 -0.319,4.166 -0.082,2.603 -0.215,6.338 -0.349,10.799 -0.104,8.795 -0.831,20.751 0.813,31.376 0.308,2.486 1.19,5.304 2.045,7.831 0.796,2.638 1.76,5.246 2.794,7.744 1.976,5.042 4.107,9.719 5.938,13.75 1.858,3.997 3.509,7.343 4.798,9.591 1.226,2.306 2.341,3.294 2.422,3.201 0.024,0.117 -1.637,-0.249 -3.781,-1.998 z"
         id="path3464"
         inkscape:connector-curvature="0"
         style="fill:#ffffff" />
    </g>
  </g>
  <flowRoot
     xml:space="preserve"
     id="flowRoot4188"
     style="fill:black;stroke:none;stroke-opacity:1;stroke-width:1px;stroke-linejoin:miter;stroke-linecap:butt;fill-opacity:1;font-family:sans-serif;font-style:normal;font-weight:normal;font-size:40px;line-height:125%;letter-spacing:0px;word-spacing:0px"><flowRegion
       id="flowRegion4190"><rect
         id="rect4192"
         width="135.17374"
         height="49.182205"
         x="4.3305087"
         y="0.38559234" /></flowRegion><flowPara
       id="flowPara4194"></flowPara></flowRoot></svg>
